{
    "asset" : {
        "generator" : "Khronos glTF Blender I/O v1.6.16",
        "version" : "2.0"
    },
    "scene" : 0,
    "scenes" : [
        {
            "name" : "Scene",
            "nodes" : [
                0,
                1,
                2,
                3,
                4,
                5,
                6,
                7,
                8,
                9
            ]
        }
    ],
    "nodes" : [
        {
            "name" : "Light.001",
            "rotation" : [
                0.16907575726509094,
                -0.27217137813568115,
                -0.7558803558349609,
                0.570947527885437
            ],
            "translation" : [
                4.076245307922363,
                -1.0054539442062378,
                -5.903861999511719
            ]
        },
        {
            "name" : "Camera.001",
            "rotation" : [
                0.2099730372428894,
                -0.09062846004962921,
                0.3857799768447876,
                -0.8937962651252747
            ],
            "translation" : [
                7.358891487121582,
                6.925790786743164,
                -4.958309173583984
            ]
        },
        {
            "name" : "Camera~1",
            "rotation" : [
                0.49947577714920044,
                -0.5005233287811279,
                -0.5007206201553345,
                -0.49927884340286255
            ],
            "translation" : [
                0.40044769644737244,
                0.4006081819534302,
                -0.0009981393814086914
            ]
        },
        {
            "mesh" : 0,
            "name" : "Body_1",
            "rotation" : [
                -0.494538277387619,
                -0.49310925602912903,
                0.5055675506591797,
                -0.5066327452659607
            ],
            "scale" : [
                1.3426783084869385,
                1.3426783084869385,
                1.3426783084869385
            ],
            "translation" : [
                0.057691752910614014,
                -0.06850343942642212,
                -0.07410965859889984
            ]
        },
        {
            "name" : "Light.002",
            "rotation" : [
                0.16907575726509094,
                -0.7558803558349609,
                0.27217137813568115,
                0.570947527885437
            ],
            "translation" : [
                4.076245307922363,
                -5.903861999511719,
                1.0054539442062378
            ]
        },
        {
            "name" : "Camera.002",
            "rotation" : [
                0.7804827690124512,
                0.2087036371231079,
                0.3368716239929199,
                -0.48353612422943115
            ],
            "translation" : [
                7.358891487121582,
                -4.958309173583984,
                -6.925790786743164
            ]
        },
        {
            "name" : "Light.003",
            "rotation" : [
                0.16907575726509094,
                0.27217137813568115,
                0.7558803558349609,
                0.570947527885437
            ],
            "translation" : [
                4.076245307922363,
                1.0054539442062378,
                5.903861999511719
            ]
        },
        {
            "name" : "Camera.003",
            "rotation" : [
                0.8937963247299194,
                0.3857799768447876,
                0.09062845259904861,
                0.20997300744056702
            ],
            "translation" : [
                7.358891487121582,
                -6.925790786743164,
                4.958309173583984
            ]
        },
        {
            "name" : "Light",
            "rotation" : [
                0.16907575726509094,
                0.7558803558349609,
                -0.27217137813568115,
                0.570947527885437
            ],
            "translation" : [
                4.076245307922363,
                5.903861999511719,
                -1.0054539442062378
            ]
        },
        {
            "name" : "Camera",
            "rotation" : [
                0.483536034822464,
                0.33687159419059753,
                -0.20870360732078552,
                0.7804827094078064
            ],
            "translation" : [
                7.358891487121582,
                4.958309173583984,
                6.925790786743164
            ]
        }
    ],
    "materials" : [
        {
            "doubleSided" : true,
            "name" : "Mtl",
            "pbrMetallicRoughness" : {
                "baseColorFactor" : [
                    1,
                    0.11879356950521469,
                    0.1106046661734581,
                    1
                ],
                "roughnessFactor" : 0.5527864098548889
            }
        }
    ],
    "meshes" : [
        {
            "name" : "Body_1",
            "primitives" : [
                {
                    "attributes" : {
                        "POSITION" : 0,
                        "NORMAL" : 1,
                        "TEXCOORD_0" : 2
                    },
                    "indices" : 3,
                    "material" : 0
                }
            ]
        }
    ],
    "accessors" : [
        {
            "bufferView" : 0,
            "componentType" : 5126,
            "count" : 6475,
            "max" : [
                0.37978872656822205,
                0.15828090906143188,
                -0.11441203206777573
            ],
            "min" : [
                -0.3823416829109192,
                -0.1394316554069519,
                -1.9715816974639893
            ],
            "type" : "VEC3"
        },
        {
            "bufferView" : 1,
            "componentType" : 5126,
            "count" : 6475,
            "type" : "VEC3"
        },
        {
            "bufferView" : 2,
            "componentType" : 5126,
            "count" : 6475,
            "type" : "VEC2"
        },
        {
            "bufferView" : 3,
            "componentType" : 5123,
            "count" : 18342,
            "type" : "SCALAR"
        }
    ],
    "bufferViews" : [
        {
            "buffer" : 0,
            "byteLength" : 77700,
            "byteOffset" : 0
        },
        {
            "buffer" : 0,
            "byteLength" : 77700,
            "byteOffset" : 77700
        },
        {
            "buffer" : 0,
            "byteLength" : 51800,
            "byteOffset" : 155400
        },
        {
            "buffer" : 0,
            "byteLength" : 36684,
            "byteOffset" : 207200
        }
    ],
    "buffers" : [
        {
            "byteLength" : 243884,
            "uri" : "human3.bin"
        }
    ]
}
